<svg xmlns="http://www.w3.org/2000/svg" viewBox="0 0 80 80"><title>drover_xsmall_icons</title><g id="Layer_4" data-name="Layer 4"><path d="M30.73,47.89c-2.24,4.58-6.05,7.6-10.38,7.6s-8.11-3-10.35-7.55" style="fill:none;stroke:#162b24;stroke-linejoin:round;stroke-width:5px"/><polygon points="20.36 23.28 25.49 35.63 30.73 47.89 20.36 47.79 10 47.89 15.24 35.63 20.36 23.28" style="fill:none;stroke:#162b24;stroke-linejoin:round;stroke-width:5px"/><path d="M70,47.89c-2.24,4.58-6,7.6-10.38,7.6s-8.11-3-10.35-7.55" style="fill:none;stroke:#162b24;stroke-linejoin:round;stroke-width:5px"/><polygon points="59.63 23.28 64.76 35.63 70 47.89 59.63 47.79 49.27 47.89 54.51 35.63 59.63 23.28" style="fill:none;stroke:#162b24;stroke-linejoin:round;stroke-width:5px"/><line x1="20.37" y1="23.28" x2="59.63" y2="23.28" style="fill:none;stroke:#162b24;stroke-linejoin:round;stroke-width:5px"/><line x1="40" y1="18.12" x2="40" y2="61.88" style="fill:none;stroke:#162b24;stroke-linejoin:round;stroke-width:5px"/><line x1="26.23" y1="61.88" x2="53.77" y2="61.88" style="fill:none;stroke:#162b24;stroke-linejoin:round;stroke-width:5px"/></g></svg>